<?xml version="1.0" encoding="UTF-8"?>
<!DOCTYPE svg PUBLIC "-//W3C//DTD SVG 1.1//EN" "http://www.w3.org/Graphics/SVG/1.1/DTD/svg11.dtd">
<svg xmlns="http://www.w3.org/2000/svg" version="1.1" width="225px" height="225px" style="shape-rendering:geometricPrecision; text-rendering:geometricPrecision; image-rendering:optimizeQuality; fill-rule:evenodd; clip-rule:evenodd" xmlns:xlink="http://www.w3.org/1999/xlink">
<g><path style="opacity:1" fill="#fefefe" d="M -0.5,-0.5 C 74.5,-0.5 149.5,-0.5 224.5,-0.5C 224.5,74.5 224.5,149.5 224.5,224.5C 149.5,224.5 74.5,224.5 -0.5,224.5C -0.5,149.5 -0.5,74.5 -0.5,-0.5 Z"/></g>
<g><path style="opacity:1" fill="#e4c464" d="M 114.5,20.5 C 118.91,18.7673 122.91,19.434 126.5,22.5C 125.513,27.3054 125.179,32.3054 125.5,37.5C 121.777,37.7767 119.444,36.11 118.5,32.5C 119.976,29.9166 121.476,27.5832 123,25.5C 120.959,24.5769 118.792,24.2436 116.5,24.5C 117.234,23.2921 117.567,21.9587 117.5,20.5C 116.5,20.5 115.5,20.5 114.5,20.5 Z"/></g>
<g><path style="opacity:1" fill="#c49b39" d="M 126.5,22.5 C 130.554,26.1513 131.388,30.4847 129,35.5C 128.184,36.8228 127.017,37.4894 125.5,37.5C 125.179,32.3054 125.513,27.3054 126.5,22.5 Z"/></g>
<g><path style="opacity:1" fill="#c2952c" d="M 114.5,20.5 C 115.5,20.5 116.5,20.5 117.5,20.5C 117.567,21.9587 117.234,23.2921 116.5,24.5C 116.217,25.2891 115.717,25.9558 115,26.5C 114.5,38.1619 114.333,49.8286 114.5,61.5C 112.5,61.5 110.5,61.5 108.5,61.5C 108.333,49.8286 108.5,38.1619 109,26.5C 109.706,23.3928 111.539,21.3928 114.5,20.5 Z"/></g>
<g><path style="opacity:1" fill="#0d0c0c" d="M 108.5,61.5 C 110.5,61.5 112.5,61.5 114.5,61.5C 117.023,62.3844 119.69,63.2177 122.5,64C 126.661,66.168 126.494,68.0013 122,69.5C 119.681,68.1287 117.181,67.4621 114.5,67.5C 112.833,67.5 111.167,67.5 109.5,67.5C 109.167,67.5 108.833,67.5 108.5,67.5C 106.585,67.2155 104.919,67.5489 103.5,68.5C 89.0973,74.2947 83.264,84.9613 86,100.5C 89.4886,109.824 95.9886,115.824 105.5,118.5C 105.5,118.833 105.5,119.167 105.5,119.5C 102.37,119.7 99.3704,120.366 96.5,121.5C 79.5381,109.539 75.7047,94.2062 85,75.5C 91.0334,67.5757 98.8667,62.909 108.5,61.5 Z"/></g>
<g><path style="opacity:1" fill="#fcfcfc" d="M 103.5,68.5 C 104.833,68.5 106.167,68.5 107.5,68.5C 108.152,85.5335 107.485,102.2 105.5,118.5C 95.9886,115.824 89.4886,109.824 86,100.5C 83.264,84.9613 89.0973,74.2947 103.5,68.5 Z"/></g>
<g><path style="opacity:1" fill="#eee8ce" d="M 103.5,68.5 C 104.919,67.5489 106.585,67.2155 108.5,67.5C 108.5,84.8333 108.5,102.167 108.5,119.5C 107.5,119.5 106.5,119.5 105.5,119.5C 105.5,119.167 105.5,118.833 105.5,118.5C 107.485,102.2 108.152,85.5335 107.5,68.5C 106.167,68.5 104.833,68.5 103.5,68.5 Z"/></g>
<g><path style="opacity:1" fill="#b9891d" d="M 108.5,67.5 C 108.833,67.5 109.167,67.5 109.5,67.5C 111.162,84.6721 112.162,102.005 112.5,119.5C 111.167,119.5 109.833,119.5 108.5,119.5C 108.5,102.167 108.5,84.8333 108.5,67.5 Z"/></g>
<g><path style="opacity:1" fill="#c9a441" d="M 109.5,67.5 C 111.167,67.5 112.833,67.5 114.5,67.5C 114.5,84.8333 114.5,102.167 114.5,119.5C 113.833,119.5 113.167,119.5 112.5,119.5C 112.162,102.005 111.162,84.6721 109.5,67.5 Z"/></g>
<g><path style="opacity:1" fill="#0c0c0b" d="M 112.5,119.5 C 113.167,119.5 113.833,119.5 114.5,119.5C 138.079,123.914 151.079,138.081 153.5,162C 151.149,186.516 137.816,200.349 113.5,203.5C 113.5,202.167 113.5,200.833 113.5,199.5C 112.209,199.737 111.209,199.404 110.5,198.5C 111.167,198.5 111.833,198.5 112.5,198.5C 114.446,193.604 115.113,188.271 114.5,182.5C 115.167,182.5 115.833,182.5 116.5,182.5C 116.5,187.833 116.5,193.167 116.5,198.5C 117.791,198.737 118.791,198.404 119.5,197.5C 121.442,192.944 122.108,187.944 121.5,182.5C 123.128,186.762 124.128,191.429 124.5,196.5C 125.107,196.376 125.44,196.043 125.5,195.5C 143.227,186.713 150.394,172.38 147,152.5C 143.479,140.484 135.979,132.151 124.5,127.5C 124.167,127.5 123.833,127.5 123.5,127.5C 122.609,126.89 121.609,126.557 120.5,126.5C 120.167,126.5 119.833,126.5 119.5,126.5C 119.158,125.662 118.492,125.328 117.5,125.5C 117.167,125.5 116.833,125.5 116.5,125.5C 115.432,124.566 114.099,124.232 112.5,124.5C 113.833,122.833 113.833,121.167 112.5,119.5 Z"/></g>
<g><path style="opacity:1" fill="#b4985d" d="M 105.5,125.5 C 106.919,124.549 108.585,124.216 110.5,124.5C 110.5,149.167 110.5,173.833 110.5,198.5C 110.167,198.5 109.833,198.5 109.5,198.5C 110.113,192.729 109.446,187.396 107.5,182.5C 109.468,163.735 110.134,144.735 109.5,125.5C 108.5,125.5 107.5,125.5 106.5,125.5C 106.167,125.5 105.833,125.5 105.5,125.5 Z"/></g>
<g><path style="opacity:1" fill="#ecead1" d="M 110.5,124.5 C 111.167,124.5 111.833,124.5 112.5,124.5C 112.5,149.167 112.5,173.833 112.5,198.5C 111.833,198.5 111.167,198.5 110.5,198.5C 110.5,173.833 110.5,149.167 110.5,124.5 Z"/></g>
<g><path style="opacity:1" fill="#b0975b" d="M 100.5,126.5 C 101.209,125.596 102.209,125.263 103.5,125.5C 103.5,149.5 103.5,173.5 103.5,197.5C 103.167,197.5 102.833,197.5 102.5,197.5C 103.108,192.056 102.442,187.056 100.5,182.5C 101.807,173.229 102.474,163.729 102.5,154C 102.498,144.475 101.832,135.308 100.5,126.5 Z"/></g>
<g><path style="opacity:1" fill="#b39037" d="M 105.5,125.5 C 105.833,125.5 106.167,125.5 106.5,125.5C 106.17,144.674 106.503,163.674 107.5,182.5C 107.5,187.833 107.5,193.167 107.5,198.5C 106.833,198.5 106.167,198.5 105.5,198.5C 105.5,174.167 105.5,149.833 105.5,125.5 Z"/></g>
<g><path style="opacity:1" fill="#c3ab6f" d="M 116.5,125.5 C 116.833,125.5 117.167,125.5 117.5,125.5C 117.5,144.5 117.5,163.5 117.5,182.5C 117.167,182.5 116.833,182.5 116.5,182.5C 115.833,182.5 115.167,182.5 114.5,182.5C 116.468,163.735 117.134,144.735 116.5,125.5 Z"/></g>
<g><path style="opacity:1" fill="#f6f1da" d="M 117.5,125.5 C 118.492,125.328 119.158,125.662 119.5,126.5C 119.5,150.167 119.5,173.833 119.5,197.5C 117.558,192.944 116.892,187.944 117.5,182.5C 117.5,163.5 117.5,144.5 117.5,125.5 Z"/></g>
<g><path style="opacity:1" fill="#e9e7cd" d="M 97.5,127.5 C 98.4975,150.327 98.8308,173.327 98.5,196.5C 97.5084,196.672 96.8417,196.338 96.5,195.5C 97.4975,173.006 97.8308,150.339 97.5,127.5 Z"/></g>
<g><path style="opacity:1" fill="#e3bf57" d="M 106.5,125.5 C 107.5,125.5 108.5,125.5 109.5,125.5C 110.134,144.735 109.468,163.735 107.5,182.5C 106.503,163.674 106.17,144.674 106.5,125.5 Z"/></g>
<g><path style="opacity:1" fill="#b38f2c" d="M 119.5,126.5 C 119.833,126.5 120.167,126.5 120.5,126.5C 120.17,145.341 120.503,164.007 121.5,182.5C 122.108,187.944 121.442,192.944 119.5,197.5C 119.5,173.833 119.5,150.167 119.5,126.5 Z"/></g>
<g><path style="opacity:1" fill="#e9c761" d="M 120.5,126.5 C 121.609,126.557 122.609,126.89 123.5,127.5C 124.133,146.069 123.466,164.402 121.5,182.5C 120.503,164.007 120.17,145.341 120.5,126.5 Z"/></g>
<g><path style="opacity:1" fill="#fcfcfb" d="M 97.5,127.5 C 97.8308,150.339 97.4975,173.006 96.5,195.5C 82.0525,189.137 74.3858,177.97 73.5,162C 74.4794,145.52 82.4794,134.02 97.5,127.5 Z"/></g>
<g><path style="opacity:1" fill="#e1bd57" d="M 99.5,126.5 C 99.8333,126.5 100.167,126.5 100.5,126.5C 101.832,135.308 102.498,144.475 102.5,154C 102.474,163.729 101.807,173.229 100.5,182.5C 99.5031,164.007 99.1698,145.341 99.5,126.5 Z"/></g>
<g><path style="opacity:1" fill="#b79c61" d="M 123.5,127.5 C 123.833,127.5 124.167,127.5 124.5,127.5C 124.169,150.339 124.503,173.006 125.5,195.5C 125.44,196.043 125.107,196.376 124.5,196.5C 124.128,191.429 123.128,186.762 121.5,182.5C 123.466,164.402 124.133,146.069 123.5,127.5 Z"/></g>
<g><path style="opacity:1" fill="#fcfcfb" d="M 124.5,127.5 C 135.979,132.151 143.479,140.484 147,152.5C 150.394,172.38 143.227,186.713 125.5,195.5C 124.503,173.006 124.169,150.339 124.5,127.5 Z"/></g>
<g><path style="opacity:1" fill="#fcfbed" d="M 103.5,125.5 C 104.167,125.5 104.833,125.5 105.5,125.5C 105.5,149.833 105.5,174.167 105.5,198.5C 104.508,198.672 103.842,198.338 103.5,197.5C 103.5,173.5 103.5,149.5 103.5,125.5 Z"/></g>
<g><path style="opacity:1" fill="#b18f31" d="M 112.5,124.5 C 114.099,124.232 115.432,124.566 116.5,125.5C 115.5,125.5 114.5,125.5 113.5,125.5C 113.17,144.674 113.503,163.674 114.5,182.5C 115.113,188.271 114.446,193.604 112.5,198.5C 112.5,173.833 112.5,149.167 112.5,124.5 Z"/></g>
<g><path style="opacity:1" fill="#b38e2c" d="M 97.5,127.5 C 97.8417,126.662 98.5084,126.328 99.5,126.5C 99.1698,145.341 99.5031,164.007 100.5,182.5C 100.5,187.5 100.5,192.5 100.5,197.5C 99.5084,197.672 98.8417,197.338 98.5,196.5C 98.8308,173.327 98.4975,150.327 97.5,127.5 Z"/></g>
<g><path style="opacity:1" fill="#e9c762" d="M 116.5,125.5 C 117.134,144.735 116.468,163.735 114.5,182.5C 113.503,163.674 113.17,144.674 113.5,125.5C 114.5,125.5 115.5,125.5 116.5,125.5 Z"/></g>
<g><path style="opacity:1" fill="#7c1017" d="M 105.5,119.5 C 106.5,119.5 107.5,119.5 108.5,119.5C 109.833,119.5 111.167,119.5 112.5,119.5C 113.833,121.167 113.833,122.833 112.5,124.5C 111.833,124.5 111.167,124.5 110.5,124.5C 108.585,124.216 106.919,124.549 105.5,125.5C 104.833,125.5 104.167,125.5 103.5,125.5C 102.209,125.263 101.209,125.596 100.5,126.5C 100.167,126.5 99.8333,126.5 99.5,126.5C 98.5084,126.328 97.8417,126.662 97.5,127.5C 82.4794,134.02 74.4794,145.52 73.5,162C 74.3858,177.97 82.0525,189.137 96.5,195.5C 96.8417,196.338 97.5084,196.672 98.5,196.5C 98.8417,197.338 99.5084,197.672 100.5,197.5C 101.167,197.5 101.833,197.5 102.5,197.5C 102.833,197.5 103.167,197.5 103.5,197.5C 103.842,198.338 104.508,198.672 105.5,198.5C 106.167,198.5 106.833,198.5 107.5,198.5C 108.167,198.5 108.833,198.5 109.5,198.5C 109.833,198.5 110.167,198.5 110.5,198.5C 111.209,199.404 112.209,199.737 113.5,199.5C 113.5,200.833 113.5,202.167 113.5,203.5C 91.4689,204.199 76.9689,193.865 70,172.5C 65.6741,148.48 74.5074,131.48 96.5,121.5C 99.3704,120.366 102.37,119.7 105.5,119.5 Z"/></g>
<g><path style="opacity:1" fill="#000000" d="M 100.5,182.5 C 102.442,187.056 103.108,192.056 102.5,197.5C 101.833,197.5 101.167,197.5 100.5,197.5C 100.5,192.5 100.5,187.5 100.5,182.5 Z"/></g>
<g><path style="opacity:1" fill="#000000" d="M 107.5,182.5 C 109.446,187.396 110.113,192.729 109.5,198.5C 108.833,198.5 108.167,198.5 107.5,198.5C 107.5,193.167 107.5,187.833 107.5,182.5 Z"/></g>
<g><path style="opacity:1" fill="#99937f" d="M 116.5,182.5 C 116.833,182.5 117.167,182.5 117.5,182.5C 116.892,187.944 117.558,192.944 119.5,197.5C 118.791,198.404 117.791,198.737 116.5,198.5C 116.5,193.167 116.5,187.833 116.5,182.5 Z"/></g>
</svg>
